<svg
    xmlns="http://www.w3.org/2000/svg"
    viewBox="0 23.600000381469727 48.900001525878906 36.400001525878906"
    data-asc="1.2"
    width="48.900001525878906"
    height="36.400001525878906"
><defs /><g fill="#7b219f"><g transform="translate(0, 0)"><path
                d="M37.65 60Q36.05 60 34.58 59.10Q33.10 58.20 32.20 56.25Q31.30 54.30 31.30 51.25Q31.30 48.75 31.90 45.63Q32.50 42.50 33.48 39.35Q34.45 36.20 35.60 33.65Q32.15 35.95 29.55 40Q26.95 44.05 25.05 49.40Q25.45 51 25.70 52.40Q25.95 53.80 25.95 54.95Q25.95 57.15 24.90 58.40Q23.85 59.65 21.25 59.65Q18.95 59.65 17.88 58.63Q16.80 57.60 16.80 55.75Q16.80 54.55 17.23 53Q17.65 51.45 18.45 49.65Q17.55 47 16.25 43.67Q14.95 40.35 12.60 36.40Q11.90 39.35 11.18 42.27Q10.45 45.20 9.98 47.67Q9.50 50.15 9.50 51.85Q9.50 54.60 11 54.60L11.10 54.70Q11.10 56.35 10.28 57.52Q9.45 58.70 8.18 59.33Q6.90 59.95 5.50 59.95Q4.15 59.95 2.88 59.30Q1.60 58.65 0.80 57.27Q0 55.90 0 53.75Q0 51.70 0.73 49.27Q1.45 46.85 2.55 44.33Q3.65 41.80 4.80 39.38Q5.95 36.95 6.88 34.83Q7.80 32.70 8.10 31.10Q7.10 30.40 5.95 30.40Q5 30.40 4.03 31.02Q3.05 31.65 2.20 33.10L1.85 32.95Q1.90 30.40 2.95 28.27Q4 26.15 5.73 24.88Q7.45 23.60 9.50 23.60Q11.85 23.60 14.35 25.65Q16.85 27.70 18.98 32.40Q21.10 37.10 22.40 45.10Q24.30 38.95 26.50 34.80Q28.70 30.65 31.02 28.20Q33.35 25.75 35.63 24.67Q37.90 23.60 39.95 23.60Q42.50 23.60 44.53 24.85Q46.55 26.10 47.73 28Q48.90 29.90 48.90 31.80Q47.65 31.45 46.43 31.30Q45.20 31.15 44.05 31.15Q42.90 31.15 41.85 31.30Q41.40 33.60 40.90 36.42Q40.40 39.25 40.03 42.10Q39.65 44.95 39.65 47.35Q39.65 49.80 40.15 51.35Q40.65 52.90 41.90 52.90Q42.70 52.90 43.53 52.20Q44.35 51.50 44.75 50.05L45.10 50.20Q45.10 53.50 44 55.67Q42.90 57.85 41.18 58.92Q39.45 60 37.65 60Z"
            /></g></g></svg>
